# xmcd
#
# Track frame offsets: 
#        150
#        14025
#        23462
#        37050
#        47412
#        58732
#        72432
#        85225
#        97667
#        117197
#        128010
#        139552
#        153622
#        166250
#        181070
#        194922
#
# Disc length: 2751 seconds
#
# Revision: 3
# Processed by: cddbd v1.5.2PL0 Copyright (c) Steve Scherf et al.
# Submitted via: ExactAudioCopy v0.99pb4
#
DISCID=d20abd10
DTITLE=Johnny Cash - 16 Biggest Hits Volume II
DYEAR=2001
DGENRE=Country
TTITLE0=Don't Take Your Guns To Town
TTITLE1=I Got Stripes
TTITLE2=Tennessee Flat-Top Box
TTITLE3=Busted
TTITLE4=Green, Green Grass Of Home
TTITLE5=Orange Blossom Special
TTITLE6=The One On The Right Is On The Left
TTITLE7=The Lady Came From Baltimore
TTITLE8=To Beat The Devil
TTITLE9=Blistered
TTITLE10=A Thing Called Love
TTITLE11=Oney
TTITLE12=Any Old Wind That Blows
TTITLE13=There Ain't No Good Chain Gang (with Waylon Jennings)
TTITLE14=Highwayman (with Willie Nelson, Waylon Jennings, Kris Kristof
TTITLE14=ferson)
TTITLE15=Over The Next Hill (with Anita Carter and The Carter Family)
EXTD=(c)2001 Sony Music Entertainment - LEGACY\n(Sony Nashville]\nKata
EXTD=log: CK 85726\nupc 696997572621\nExecute Producers: Johnny Cash &
EXTD=Margie Hunt
EXTT0=
EXTT1=
EXTT2=
EXTT3=
EXTT4=
EXTT5=
EXTT6=
EXTT7=
EXTT8=
EXTT9=
EXTT10=
EXTT11=
EXTT12=
EXTT13=
EXTT14=
EXTT15=
PLAYORDER=
